# xmcd
# 
# Track frame offsets:
#     150
#     19156
#     36774
#     63394
#     81877
#     98134
#     117031
#     139886
#     156451
#     174659
#     187224
# 
# Disc length: 2737
# 
# Revision: 1
# Processed by: cddbd v1.5.2PL0 Copyright (c) Steve Scherf et al.
# Submitted via: fre:ac v1.0.27
# 
DISCID=970aaf0b
DTITLE=Of Montreal - Lousy With Sylvianbriar
DYEAR=2014
DGENRE=Atmospheric/Psychedelic Rock
TTITLE0=Fugitive Air
TTITLE1=Obsidian Currents
TTITLE2=Belle Glade Missionaries
TTITLE3=Sirens of Your Toxic Spirit
TTITLE4=Colossus
TTITLE5=Triumph of Disintegration
TTITLE6=Amphibian Days
TTITLE7=She Ain't Speakin' Now
TTITLE8=Hegira Emigre
TTITLE9=Raindrop In My Skull
TTITLE10=Imbecile Rages
EXTD=
EXTT0=
EXTT1=
EXTT2=
EXTT3=
EXTT4=
EXTT5=
EXTT6=
EXTT7=
EXTT8=
EXTT9=
EXTT10=
PLAYORDER=
